Coordinates
version=1
nRows=11
nColumns=24
inDegrees=yes

Units are S.I. units (second, meters, Newtons, ...)
If the header above contains a line with 'inDegrees', this indicates whether rotational values are in degrees (yes) or radians (no).

endheader
time	pelvis_tilt	pelvis_list	pelvis_rotation	pelvis_tx	pelvis_ty	pelvis_tz	hip_flexion_r	hip_adduction_r	hip_rotation_r	knee_angle_r	ankle_angle_r	subtalar_angle_r	mtp_angle_r	hip_flexion_l	hip_adduction_l	hip_rotation_l	knee_angle_l	ankle_angle_l	subtalar_angle_l	mtp_angle_l	lumbar_extension	lumbar_bending	lumbar_rotation
     22.50000000000000000000	      1.27375405545764164295	    -10.49674846922187043674	      3.29609425007592049539	      0.21226824030321470027	      0.85972769332534593190	      0.00259221628258396713	    -12.40777016886252503980	     14.57704573047952756326	     -0.32950586512017193686	     -4.17852073927823575161	     10.73284656699815187153	      0.00000000000000000000	      0.00000000000000000000	     36.08691424200971198388	     -9.81996732027149477062	      2.85727981469827208016	    -31.00833416355240501616	      0.88972710211867367391	      0.00000000000000000000	      0.00000000000000000000	    -16.24344593701689376530	     10.24253466861451933312	      7.42733893147859181028
     22.50833333333332930692	      1.38976286065280629778	    -10.66955792189418872340	      3.18935786729116088623	      0.21180758932578278020	      0.85793384860631738409	      0.00119217133095305848	    -13.37607288068313593499	     14.58783059138609061733	      0.04336841691245258562	     -4.17459307399077683698	     11.05804811226138362201	      0.00000000000000000000	      0.00000000000000000000	     35.58403325417919660367	     -9.88918596357869006397	      3.30911686166388863128	    -27.58919076327733677090	      0.69834695619682984891	      0.00000000000000000000	      0.00000000000000000000	    -16.49107035953132438522	     10.56275992920232198458	      7.85514913292383898380
     22.51666666666666927199	      1.48057981432400431743	    -10.84750547138478182774	      3.14660507481275786290	      0.21135775206887896793	      0.85606099509356770039	     -0.00031775902776369773	    -14.24354933476393014757	     14.60717766894689617629	      0.30142017029539414086	     -4.28218664401639603767	     11.38995748131011609416	      0.00000000000000000000	      0.00000000000000000000	     35.08327272347884218107	     -9.92459587150358402141	      3.93089618497679049725	    -24.35124424863932190988	      0.49024545163559235528	      0.00000000000000000000	      0.00000000000000000000	    -16.69947432287695932018	     10.89927286380120996512	      8.22194209256650410111
     22.52499999999999857891	      1.51552827013756563623	    -11.02344462528844992733	      3.12981460035662317765	      0.21093171389598056042	      0.85409775631069573265	     -0.00182380177226424767	    -14.97439415840777066080	     14.63016709503957102356	      0.46800253012728326718	     -4.51989540130646005878	     11.75364786231063973787	      0.00000000000000000000	      0.00000000000000000000	     34.62866889055710117873	     -9.94461998460622176310	      4.63882006672804791947	    -21.36488388398245774624	      0.21745277281338903919	      0.00000000000000000000	      0.00000000000000000000	    -16.83733783277845219573	     11.22637669927012282756	      8.52387922043994805676
     22.53333333333333143855	      1.56066829568014653340	    -11.13732528911634211966	      3.13360301932279128323	      0.21059871564741450278	      0.85219714963611203906	     -0.00330899498260804007	    -15.65270467811055077334	     14.59739006302314479058	      0.53893818005539273486	     -4.88180549258659102208	     12.09749735308016482804	      0.00000000000000000000	      0.00000000000000000000	     34.16038332175616432096	     -9.90410263823930669957	      5.34142138792657394930	    -18.72688690779767028971	     -0.11490001119374033955	      0.00000000000000000000	      0.00000000000000000000	    -16.97952429514715788628	     11.47137701742349769063	      8.78348407145751330916
     22.54166666666667140362	      1.52563599088643964130	    -11.23752439393456548089	      3.12218734193479230399	      0.21032918471747488742	      0.85023502999988442852	     -0.00473670882502623489	    -16.14297521963647241705	     14.55104063083143550728	      0.52378070874206150709	     -5.45005590837733677745	     12.43602605437079944295	      0.00000000000000000000	      0.00000000000000000000	     33.85305665424247223427	     -9.84289653780519557813	      6.03401699012550984946	    -16.59772346443725865583	     -0.50987434700768718976	      0.00000000000000000000	      0.00000000000000000000	    -17.02133778956768850321	     11.68375681919769348838	      8.97984551184224599751
     22.55000000000000071054	      1.70759204350203996903	    -11.11466241416495215333	      3.15230337416882955281	      0.21046706954170521509	      0.84876348621589980947	     -0.00606404737875500428	    -16.91366623028351057201	     14.29619019215873088058	      0.49766127857034625492	     -5.94859774498996340952	     12.74096660640634937067	      0.00000000000000000000	      0.00000000000000000000	     33.26658036153375519461	     -9.58889841901748063435	      6.56181780303083339589	    -14.90771897166207793362	     -0.76807135870432952096	      0.00000000000000000000	      0.00000000000000000000	    -17.26886614830867827663	     11.60868535755911601370	      9.10832558796913005494
     22.55833333333333001747	      1.86630282290083493457	    -10.99219528202450923970	      3.17121688408866164721	      0.21075261855597332561	      0.84734709011861297778	     -0.00732155369904385813	    -17.58065802915667674711	     14.04928534267351381004	      0.38702131925161609161	     -6.60504298586254545711	     13.02565116823444490990	      0.00000000000000000000	      0.00000000000000000000	     32.80491406726551417705	     -9.32359323929099303996	      6.97282152856985870670	    -13.84882709413318480074	     -0.85667831991091103472	      0.00000000000000000000	      0.00000000000000000000	    -17.47431926212059494219	     11.51912401514088912791	      9.19566957440926024958
     22.56666666666666998253	      2.08052756704387142861	    -10.81646791344641300725	      3.16743463702391592207	      0.21134828646024997334	      0.84613147685284950672	     -0.00849039268659206557	    -18.28242158780880188829	     13.74706682560505832669	      0.26333025858974618005	     -7.34018491480397461402	     13.21276364689036242339	      0.00000000000000000000	      0.00000000000000000000	     32.33027947617460995389	     -9.01583595790104297407	      7.11249422017090537906	    -13.38819502395496741087	     -0.63672479832867745486	      0.00000000000000000000	      0.00000000000000000000	    -17.71059352873050585231	     11.34529255470060249422	      9.28087303386580941833
     22.57499999999999928946	      2.35265071810184123180	    -10.58242557280462392555	      3.17668411332294065019	      0.21232038156309218646	      0.84507787015978608203	     -0.00965095204136721604	    -19.03452276188104619337	     13.39199379824646030102	      0.12995579112575553205	     -8.12962037866009090692	     13.26174626703857128973	      0.00000000000000000000	      0.00000000000000000000	     31.82902340333220436719	     -8.64324448226396135908	      6.93359884877096899203	    -13.46600955458006865229	     -0.17977057257523482159	      0.00000000000000000000	      0.00000000000000000000	    -17.95906502100266521893	     11.09604036142811978038	      9.30667109442465090297
     22.58333333333332859638	      2.44768982197348217156	    -10.39118231925363033952	      3.20244751001363736620	      0.21368594584824110449	      0.84376690509429652653	     -0.01085666425860266036	    -19.56337414198165802759	     13.09700983107816973927	      0.00180992802224393665	     -9.01500553589277586752	     13.32031181199242553248	      0.00000000000000000000	      0.00000000000000000000	     31.58959389637343662116	     -8.26487856224737527100	      6.55585911714404989681	    -14.07634237087066075844	      0.52805459544719079990	      0.00000000000000000000	      0.00000000000000000000	    -17.92268409143092000591	     10.89633822510221961011	      9.28471419445216561428
